<svg width="256" height="256" viewBox="0 0 256 256" fill="none" xmlns="http://www.w3.org/2000/svg">
<rect width="256" height="256" fill="#3498DB"/>
<path d="M113.676 122.875V108.332C113.676 108.012 113.781 107.742 113.992 107.523C114.203 107.305 114.461 107.195 114.766 107.195H119.535C119.84 107.195 120.129 107.305 120.402 107.523C120.676 107.742 120.859 108.004 120.953 108.309L124.41 118.316L127.867 108.309C127.961 108.004 128.145 107.742 128.418 107.523C128.691 107.305 128.98 107.195 129.285 107.195H134.055C134.359 107.195 134.613 107.305 134.816 107.523C135.027 107.742 135.133 108.012 135.133 108.332V122.875C135.133 123.195 135.023 123.465 134.805 123.684C134.594 123.895 134.336 124 134.031 124H131.922C131.617 124 131.355 123.895 131.137 123.684C130.926 123.465 130.82 123.195 130.82 122.875V111.426L126.684 122.945C126.574 123.234 126.383 123.484 126.109 123.695C125.836 123.898 125.547 124 125.242 124H123.566C123.262 124 122.973 123.898 122.699 123.695C122.434 123.484 122.242 123.234 122.125 122.945L118 111.426V122.875C118 123.195 117.891 123.465 117.672 123.684C117.461 123.895 117.203 124 116.898 124H114.789C114.484 124 114.223 123.895 114.004 123.684C113.785 123.465 113.676 123.195 113.676 122.875ZM154 122.266C152.406 123.664 150.062 124.363 146.969 124.363C143.883 124.363 141.539 123.664 139.938 122.266C138.336 120.859 137.535 118.637 137.535 115.598C137.535 112.559 138.336 110.34 139.938 108.941C141.539 107.543 143.883 106.844 146.969 106.844C150.062 106.844 152.406 107.543 154 108.941C155.602 110.34 156.402 112.559 156.402 115.598C156.402 118.637 155.602 120.859 154 122.266ZM150.801 111.414C150.012 110.477 148.734 110.008 146.969 110.008C145.211 110.008 143.934 110.477 143.137 111.414C142.348 112.352 141.953 113.75 141.953 115.609C141.953 117.461 142.348 118.855 143.137 119.793C143.934 120.723 145.211 121.188 146.969 121.188C148.734 121.188 150.012 120.723 150.801 119.793C151.59 118.855 151.984 117.461 151.984 115.609C151.984 113.75 151.59 112.352 150.801 111.414ZM158.816 122.898V108.309C158.816 107.988 158.922 107.723 159.133 107.512C159.344 107.301 159.609 107.195 159.93 107.195H161.992C162.297 107.195 162.555 107.301 162.766 107.512C162.984 107.723 163.094 107.98 163.094 108.285V120.016L169.762 108.309C169.941 108.004 170.188 107.742 170.5 107.523C170.812 107.305 171.102 107.195 171.367 107.195H174.824C175.129 107.195 175.387 107.305 175.598 107.523C175.809 107.742 175.914 108.004 175.914 108.309V122.898C175.914 123.203 175.805 123.465 175.586 123.684C175.367 123.895 175.105 124 174.801 124H172.738C172.434 124 172.172 123.895 171.953 123.684C171.742 123.465 171.637 123.203 171.637 122.898V112.023L165.52 122.898C165.34 123.203 165.086 123.465 164.758 123.684C164.43 123.895 164.113 124 163.809 124H159.93C159.625 124 159.363 123.895 159.145 123.684C158.926 123.465 158.816 123.203 158.816 122.898ZM163.434 102.402C163.434 102.004 163.648 101.805 164.078 101.805H165.039C165.422 101.805 165.691 102.004 165.848 102.402C166.074 102.957 166.578 103.234 167.359 103.234C168.148 103.234 168.652 102.957 168.871 102.402C169.035 102.004 169.309 101.805 169.691 101.805H170.652C171.082 101.805 171.297 102.004 171.297 102.402C171.297 103.473 170.938 104.32 170.219 104.945C169.5 105.57 168.547 105.883 167.359 105.883C166.18 105.883 165.23 105.57 164.512 104.945C163.793 104.32 163.434 103.473 163.434 102.402ZM129.18 153.266C127.586 154.664 125.242 155.363 122.148 155.363C119.062 155.363 116.719 154.664 115.117 153.266C113.516 151.859 112.715 149.637 112.715 146.598C112.715 143.559 113.516 141.34 115.117 139.941C116.719 138.543 119.062 137.844 122.148 137.844C125.242 137.844 127.586 138.543 129.18 139.941C130.781 141.34 131.582 143.559 131.582 146.598C131.582 149.637 130.781 151.859 129.18 153.266ZM125.98 142.414C125.191 141.477 123.914 141.008 122.148 141.008C120.391 141.008 119.113 141.477 118.316 142.414C117.527 143.352 117.133 144.75 117.133 146.609C117.133 148.461 117.527 149.855 118.316 150.793C119.113 151.723 120.391 152.188 122.148 152.188C123.914 152.188 125.191 151.723 125.98 150.793C126.77 149.855 127.164 148.461 127.164 146.609C127.164 144.75 126.77 143.352 125.98 142.414ZM133.996 153.922V139.309C133.996 138.988 134.102 138.723 134.312 138.512C134.523 138.301 134.789 138.195 135.109 138.195H146.43C146.75 138.195 147.012 138.301 147.215 138.512C147.426 138.723 147.531 138.988 147.531 139.309V140.41C147.531 140.73 147.426 140.996 147.215 141.207C147.012 141.41 146.75 141.512 146.43 141.512H138.414V153.922C138.414 154.227 138.305 154.484 138.086 154.695C137.875 154.898 137.617 155 137.312 155H135.109C134.805 155 134.543 154.898 134.324 154.695C134.105 154.484 133.996 154.227 133.996 153.922ZM164.617 153.266C163.023 154.664 160.68 155.363 157.586 155.363C154.5 155.363 152.156 154.664 150.555 153.266C148.953 151.859 148.152 149.637 148.152 146.598C148.152 143.559 148.953 141.34 150.555 139.941C152.156 138.543 154.5 137.844 157.586 137.844C160.68 137.844 163.023 138.543 164.617 139.941C166.219 141.34 167.02 143.559 167.02 146.598C167.02 149.637 166.219 151.859 164.617 153.266ZM161.418 142.414C160.629 141.477 159.352 141.008 157.586 141.008C155.828 141.008 154.551 141.477 153.754 142.414C152.965 143.352 152.57 144.75 152.57 146.609C152.57 148.461 152.965 149.855 153.754 150.793C154.551 151.723 155.828 152.188 157.586 152.188C159.352 152.188 160.629 151.723 161.418 150.793C162.207 149.855 162.602 148.461 162.602 146.609C162.602 144.75 162.207 143.352 161.418 142.414ZM169.434 153.898V139.309C169.434 139.004 169.539 138.742 169.75 138.523C169.961 138.305 170.219 138.195 170.523 138.195H179.465C184.191 138.195 186.555 140.375 186.555 144.734C186.555 149.086 184.191 151.262 179.465 151.262H173.852V153.898C173.852 154.203 173.742 154.465 173.523 154.684C173.312 154.895 173.055 155 172.75 155H170.547C170.242 155 169.98 154.895 169.762 154.684C169.543 154.465 169.434 154.203 169.434 153.898ZM173.852 147.945H178.129C179.441 147.945 180.438 147.727 181.117 147.289C181.797 146.844 182.137 145.992 182.137 144.734C182.137 143.469 181.797 142.617 181.117 142.18C180.438 141.734 179.441 141.512 178.129 141.512H173.852V147.945ZM204.227 153.266C202.633 154.664 200.289 155.363 197.195 155.363C194.109 155.363 191.766 154.664 190.164 153.266C188.562 151.859 187.762 149.637 187.762 146.598C187.762 143.559 188.562 141.34 190.164 139.941C191.766 138.543 194.109 137.844 197.195 137.844C200.289 137.844 202.633 138.543 204.227 139.941C205.828 141.34 206.629 143.559 206.629 146.598C206.629 149.637 205.828 151.859 204.227 153.266ZM201.027 142.414C200.238 141.477 198.961 141.008 197.195 141.008C195.438 141.008 194.16 141.477 193.363 142.414C192.574 143.352 192.18 144.75 192.18 146.609C192.18 148.461 192.574 149.855 193.363 150.793C194.16 151.723 195.438 152.188 197.195 152.188C198.961 152.188 200.238 151.723 201.027 150.793C201.816 149.855 202.211 148.461 202.211 146.609C202.211 144.75 201.816 143.352 201.027 142.414ZM207.016 153.898V152.773C207.016 152.469 207.121 152.211 207.332 152C207.551 151.789 207.812 151.684 208.117 151.684H209.031L211.211 142.812C211.969 139.734 214.508 138.195 218.828 138.195H225.156C225.461 138.195 225.719 138.301 225.93 138.512C226.148 138.723 226.258 138.98 226.258 139.285V153.922C226.258 154.227 226.148 154.484 225.93 154.695C225.719 154.898 225.461 155 225.156 155H208.117C207.812 155 207.551 154.895 207.332 154.684C207.121 154.465 207.016 154.203 207.016 153.898ZM213.543 151.684H221.852V141.512H218.348C217.605 141.512 216.992 141.715 216.508 142.121C216.023 142.527 215.691 143.094 215.512 143.82L213.543 151.684Z" fill="white"/>
<path d="M90.9558 91.3642L93.871 91.3318L94.1247 92.8239L94.1585 95.7349L93.6453 99.0453L92.6585 102.282L90.2846 108.21L87.7303 112.172L84.7023 116.062L81.274 119.404L77.9923 121.801L74.7839 123.725L70.1546 125.429L66.0722 126.734L62.6101 127.165L60.1686 127.271L60.2081 123.887L60.8678 119.631L62.0745 114.975L63.6083 111.339L65.6157 107.776L68.717 103.414L73.8594 98.3996L79.2556 94.8776L83.4113 93.1004L86.9467 92.1956L90.9558 91.3642Z" stroke="white" stroke-width="2" stroke-linejoin="round"/>
<path d="M33.4824 103.803L33 100.951L34.4471 100.475L37.3412 100H40.7176L44.0941 100.475L50.3647 101.902L54.7059 103.803L59.0471 106.18L62.9059 109.033L65.8 111.885L68.2118 114.738L70.6235 119.016L72.5529 122.82L73.5176 126.148L74 128.525L70.6235 129H66.2824L61.4588 128.525L57.6 127.574L53.7412 126.148L48.9176 123.77L43.1294 119.492L38.7882 114.738L36.3765 110.934L34.9294 107.607L33.4824 103.803Z" fill="#3498DB" stroke="white" stroke-width="2" stroke-linejoin="round"/>
<line x1="74" y1="161" x2="74" y2="129" stroke="white" stroke-width="2" stroke-linecap="round"/>
</svg>
