<svg width="256" height="256" viewBox="0 0 256 256" fill="none" xmlns="http://www.w3.org/2000/svg">
<rect width="256" height="256" fill="#3498DB"/>
<path d="M172.352 116.75V87.6641C172.352 87.0234 172.562 86.4844 172.984 86.0469C173.406 85.6094 173.922 85.3906 174.531 85.3906H184.07C184.68 85.3906 185.258 85.6094 185.805 86.0469C186.352 86.4844 186.719 87.0078 186.906 87.6172L193.82 107.633L200.734 87.6172C200.922 87.0078 201.289 86.4844 201.836 86.0469C202.383 85.6094 202.961 85.3906 203.57 85.3906H213.109C213.719 85.3906 214.227 85.6094 214.633 86.0469C215.055 86.4844 215.266 87.0234 215.266 87.6641V116.75C215.266 117.391 215.047 117.93 214.609 118.367C214.188 118.789 213.672 119 213.062 119H208.844C208.234 119 207.711 118.789 207.273 118.367C206.852 117.93 206.641 117.391 206.641 116.75V93.8516L198.367 116.891C198.148 117.469 197.766 117.969 197.219 118.391C196.672 118.797 196.094 119 195.484 119H192.133C191.523 119 190.945 118.797 190.398 118.391C189.867 117.969 189.484 117.469 189.25 116.891L181 93.8516V116.75C181 117.391 180.781 117.93 180.344 118.367C179.922 118.789 179.406 119 178.797 119H174.578C173.969 119 173.445 118.789 173.008 118.367C172.57 117.93 172.352 117.391 172.352 116.75Z" fill="white"/>
<path d="M209.654 182.098C206.068 185.244 200.795 186.817 193.834 186.817C186.891 186.817 181.617 185.244 178.014 182.098C174.41 178.934 172.608 173.933 172.608 167.095C172.608 160.257 174.41 155.265 178.014 152.118C181.617 148.972 186.891 147.398 193.834 147.398C200.795 147.398 206.068 148.972 209.654 152.118C213.258 155.265 215.06 160.257 215.06 167.095C215.06 173.933 213.258 178.934 209.654 182.098ZM202.456 157.682C200.681 155.572 197.807 154.518 193.834 154.518C189.879 154.518 187.005 155.572 185.212 157.682C183.437 159.791 182.549 162.938 182.549 167.121C182.549 171.287 183.437 174.425 185.212 176.534C187.005 178.626 189.879 179.672 193.834 179.672C197.807 179.672 200.681 178.626 202.456 176.534C204.231 174.425 205.119 171.287 205.119 167.121C205.119 162.938 204.231 159.791 202.456 157.682Z" fill="white"/>
<path d="M117.126 89.5065L120.805 89.4657L121.125 91.3484L121.168 95.0213L120.52 99.1983L119.275 103.283L116.28 110.762L113.057 115.762L109.236 120.669L104.91 124.887L100.77 127.911L96.7214 130.339L90.8803 132.489L85.7293 134.134L81.3609 134.679L78.2803 134.813L78.3301 130.543L79.1626 125.173L80.6852 119.298L82.6204 114.71L85.1533 110.214L89.0663 104.71L95.5549 98.3836L102.364 93.9396L107.607 91.6972L112.068 90.5556L117.126 89.5065Z" stroke="white" stroke-width="2" stroke-linejoin="round"/>
<path d="M44.6 104.852L44 101.213L45.8 100.607L49.4 100H53.6L57.8 100.607L65.6 102.426L71 104.852L76.4 107.885L81.2 111.525L84.8 115.164L87.8 118.803L90.8 124.262L93.2 129.115L94.4 133.361L95 136.393L90.8 137H85.4L79.4 136.393L74.6 135.18L69.8 133.361L63.8 130.328L56.6 124.869L51.2 118.803L48.2 113.951L46.4 109.705L44.6 104.852Z" fill="#3498DB" stroke="white" stroke-width="2" stroke-linejoin="round"/>
<line x1="95" y1="177" x2="95" y2="136" stroke="white" stroke-width="2" stroke-linecap="round"/>
<path d="M157 81V188.005" stroke="white" stroke-width="4" stroke-linecap="round"/>
</svg>
